<svg xmlns="http://www.w3.org/2000/svg" width="180" height="180" viewBox="0 0 180 180"><defs><linearGradient id="bedge" x1="0" y1="0" x2="1" y2="1"><stop offset="0" stop-color="#bff2ff"/><stop offset=".35" stop-color="#3fd0ff"/><stop offset=".7" stop-color="#17b6d6"/><stop offset="1" stop-color="#0a7f9e"/></linearGradient><linearGradient id="bedgeDark" x1="0" y1="0" x2="0" y2="1"><stop offset="0" stop-color="#2a3d47"/><stop offset="1" stop-color="#0e1a20"/></linearGradient><linearGradient id="bspectrum" x1="0" y1="0" x2="1" y2="1"><stop offset="0" stop-color="#ffffff"/><stop offset=".28" stop-color="#8ef0ff"/><stop offset=".55" stop-color="#3fd0ff"/><stop offset=".8" stop-color="#1de1c4"/><stop offset="1" stop-color="#0e8f9e"/></linearGradient><radialGradient id="bhit" cx=".5" cy=".5" r=".5"><stop offset="0" stop-color="#ffffff"/><stop offset="1" stop-color="#8ef0ff" stop-opacity="0"/></radialGradient><linearGradient id="btxt" x1="0" y1="0" x2="1" y2="0"><stop offset="0" stop-color="#eaf9ff"/><stop offset=".55" stop-color="#3fd0ff"/><stop offset="1" stop-color="#1de1c4"/></linearGradient><filter id="bglow" x="-60%" y="-60%" width="220%" height="220%"><feGaussianBlur stdDeviation="6" result="b"/><feMerge><feMergeNode in="b"/><feMergeNode in="SourceGraphic"/></feMerge></filter><filter id="bsoft" x="-40%" y="-40%" width="180%" height="180%"><feGaussianBlur stdDeviation="2.2"/></filter></defs><defs><radialGradient id="bbg" cx=".3" cy=".15" r="1.2"><stop offset="0" stop-color="#132234"/><stop offset=".7" stop-color="#080b12"/></radialGradient></defs><rect width="180" height="180" rx="38" fill="url(#bbg)"/><rect x=".5" y=".5" width="179" height="179" rx="37.5" fill="none" stroke="#3fd0ff" stroke-opacity=".18"/><g transform="translate(26,29) scale(.32)"><g filter="url(#bsoft)" opacity=".92"><polygon points="132,196 210,300 288,300" fill="url(#bspectrum)" opacity=".85"/><polygon points="132,196 168,300 246,300" fill="url(#bspectrum)" opacity=".5"/><polygon points="132,196 262,300 288,268" fill="url(#bspectrum)" opacity=".4"/></g><g stroke-linecap="round" opacity=".9"><line x1="132" y1="196" x2="200" y2="300" stroke="#8ef0ff" stroke-width="2.5"/><line x1="132" y1="196" x2="234" y2="300" stroke="#3fd0ff" stroke-width="2.5"/><line x1="132" y1="196" x2="270" y2="292" stroke="#1de1c4" stroke-width="2.5"/><line x1="132" y1="196" x2="286" y2="256" stroke="#0fb0b8" stroke-width="2.5"/></g><line x1="6" y1="112" x2="132" y2="196" stroke="url(#bedge)" stroke-width="3.2" filter="url(#bglow)"/><line x1="6" y1="112" x2="132" y2="196" stroke="#ffffff" stroke-width="1.4"/><circle cx="132" cy="196" r="16" fill="url(#bhit)"/><path d="M200,44 L346,330 L54,330 Z M200,122 L110,298 L290,298 Z" fill-rule="evenodd" fill="url(#bedgeDark)" stroke="url(#bedge)" stroke-width="2.4" stroke-linejoin="round" filter="url(#bglow)"/><path d="M200,44 L346,330 L54,330 Z M200,122 L110,298 L290,298 Z" fill-rule="evenodd" fill="none" stroke="url(#bedge)" stroke-width="1.1" stroke-linejoin="round"/><line x1="200" y1="44" x2="346" y2="330" stroke="#dff6ff" stroke-width="1.2" opacity=".55"/></g></svg>